<svg xmlns="http://www.w3.org/2000/svg" xmlns:xlink="http://www.w3.org/1999/xlink" width="201" height="230" viewBox="0 0 201 230">
  <defs>
    <clipPath id="clip-Interview">
      <rect width="201" height="230"/>
    </clipPath>
  </defs>
  <g id="Interview" clip-path="url(#clip-Interview)">
    <g id="SVG_Checkout_logo" transform="translate(-199.005 -227.17)">
      <path id="Path_1" data-name="Path 1" d="M281.05,443.78l50.58-88.2,50.5,88.24Zm-11.2-196.16,54.29,94.88-54.38,94.82L214,342.44Zm61.79,81.81-50.49-88.25H382.22Zm7.49,13.07L399.08,238a6.49,6.49,0,0,0-5.63-9.73L270,228.17h0a6.48,6.48,0,0,0-5.6,3.2L200.9,339.14a6.51,6.51,0,0,0,0,6.59l63.33,107.84a6.54,6.54,0,0,0,5.6,3.21h.05l123.47.05a6.5,6.5,0,0,0,5.65-9.72Z" fill="#02b48f"/>
    </g>
  </g>
</svg>
