<svg xmlns="http://www.w3.org/2000/svg" width="201" height="230" viewBox="0 0 201 230"><defs><clipPath id="a"><path d="M0 0h201v230H0z"/></clipPath></defs><g clip-path="url(#a)"><path data-name="Path 1" d="M82.045 216.61l50.58-88.2 50.5 88.24zm-11.2-196.16l54.29 94.88-54.38 94.82-55.76-94.88zm61.79 81.81l-50.49-88.25h101.07zm7.49 13.07l59.95-104.5a6.49 6.49 0 00-5.63-9.73L70.995 1a6.48 6.48 0 00-5.6 3.2l-63.5 107.77a6.51 6.51 0 000 6.59l63.33 107.84a6.54 6.54 0 005.6 3.21h.05l123.47.05a6.5 6.5 0 005.65-9.72z" fill="#02b48f"/></g></svg>